<mxfile host="Electron" agent="Mozilla/5.0 (X11; Linux x86_64) AppleWebKit/537.36 (KHTML, like Gecko) draw.io/24.7.8 Chrome/128.0.6613.162 Electron/32.1.2 Safari/537.36" version="24.7.8">
  <diagram name="Page-1" id="WxPb5rl1i4_D-ZI9Svyz">
    <mxGraphModel dx="1050" dy="602" grid="1" gridSize="10" guides="1" tooltips="1" connect="1" arrows="1" fold="1" page="1" pageScale="1" pageWidth="850" pageHeight="1100" math="0" shadow="0">
      <root>
        <mxCell id="0" />
        <mxCell id="1" parent="0" />
        <mxCell id="RNFraTPyCIDeUbcSLggv-26" value="" style="group" vertex="1" connectable="0" parent="1">
          <mxGeometry x="10" y="10" width="220" height="130" as="geometry" />
        </mxCell>
        <mxCell id="RNFraTPyCIDeUbcSLggv-1" value="Arduino Uno R3" style="shape=document;whiteSpace=wrap;html=1;boundedLbl=1;direction=south;" vertex="1" parent="RNFraTPyCIDeUbcSLggv-26">
          <mxGeometry y="10" width="100" height="120" as="geometry" />
        </mxCell>
        <mxCell id="RNFraTPyCIDeUbcSLggv-2" value="DIO" style="text;html=1;align=center;verticalAlign=middle;whiteSpace=wrap;rounded=0;" vertex="1" parent="RNFraTPyCIDeUbcSLggv-26">
          <mxGeometry x="50" y="10" width="60" height="30" as="geometry" />
        </mxCell>
        <mxCell id="RNFraTPyCIDeUbcSLggv-3" value="" style="endArrow=none;html=1;rounded=0;exitX=0.833;exitY=0.5;exitDx=0;exitDy=0;exitPerimeter=0;" edge="1" parent="RNFraTPyCIDeUbcSLggv-26" source="RNFraTPyCIDeUbcSLggv-2">
          <mxGeometry width="50" height="50" relative="1" as="geometry">
            <mxPoint x="109.99666666666667" y="30" as="sourcePoint" />
            <mxPoint x="220" y="25" as="targetPoint" />
          </mxGeometry>
        </mxCell>
        <mxCell id="RNFraTPyCIDeUbcSLggv-8" value="" style="endArrow=classic;html=1;rounded=0;" edge="1" parent="RNFraTPyCIDeUbcSLggv-26">
          <mxGeometry width="50" height="50" relative="1" as="geometry">
            <mxPoint x="220" as="sourcePoint" />
            <mxPoint x="120" y="0.22999999999998977" as="targetPoint" />
          </mxGeometry>
        </mxCell>
        <mxCell id="RNFraTPyCIDeUbcSLggv-11" value="30mA" style="edgeLabel;html=1;align=center;verticalAlign=middle;resizable=0;points=[];" vertex="1" connectable="0" parent="RNFraTPyCIDeUbcSLggv-8">
          <mxGeometry x="-0.0374" relative="1" as="geometry">
            <mxPoint as="offset" />
          </mxGeometry>
        </mxCell>
        <mxCell id="RNFraTPyCIDeUbcSLggv-10" value="" style="endArrow=classic;html=1;rounded=0;" edge="1" parent="RNFraTPyCIDeUbcSLggv-26">
          <mxGeometry width="50" height="50" relative="1" as="geometry">
            <mxPoint x="120" y="50" as="sourcePoint" />
            <mxPoint x="220" y="50" as="targetPoint" />
          </mxGeometry>
        </mxCell>
        <mxCell id="RNFraTPyCIDeUbcSLggv-12" value="20mA" style="edgeLabel;html=1;align=center;verticalAlign=middle;resizable=0;points=[];" vertex="1" connectable="0" parent="RNFraTPyCIDeUbcSLggv-10">
          <mxGeometry x="-0.0683" relative="1" as="geometry">
            <mxPoint as="offset" />
          </mxGeometry>
        </mxCell>
        <mxCell id="RNFraTPyCIDeUbcSLggv-27" value="" style="group" vertex="1" connectable="0" parent="1">
          <mxGeometry y="160" width="280" height="330" as="geometry" />
        </mxCell>
        <mxCell id="RNFraTPyCIDeUbcSLggv-14" value="CPU" style="rounded=0;whiteSpace=wrap;html=1;" vertex="1" parent="RNFraTPyCIDeUbcSLggv-27">
          <mxGeometry x="160" width="120" height="60" as="geometry" />
        </mxCell>
        <mxCell id="RNFraTPyCIDeUbcSLggv-15" value="Flash Memory" style="rounded=0;whiteSpace=wrap;html=1;" vertex="1" parent="RNFraTPyCIDeUbcSLggv-27">
          <mxGeometry y="90" width="120" height="60" as="geometry" />
        </mxCell>
        <mxCell id="RNFraTPyCIDeUbcSLggv-16" value="EEPROM - Stores Data when power is lost (swap)" style="rounded=0;whiteSpace=wrap;html=1;" vertex="1" parent="RNFraTPyCIDeUbcSLggv-27">
          <mxGeometry y="180" width="120" height="60" as="geometry" />
        </mxCell>
        <mxCell id="RNFraTPyCIDeUbcSLggv-17" value="SRAM - makes execution faster" style="rounded=0;whiteSpace=wrap;html=1;" vertex="1" parent="RNFraTPyCIDeUbcSLggv-27">
          <mxGeometry y="270" width="120" height="60" as="geometry" />
        </mxCell>
        <mxCell id="RNFraTPyCIDeUbcSLggv-18" value="" style="endArrow=none;html=1;rounded=0;entryX=0.5;entryY=1;entryDx=0;entryDy=0;" edge="1" parent="RNFraTPyCIDeUbcSLggv-27" target="RNFraTPyCIDeUbcSLggv-14">
          <mxGeometry width="50" height="50" relative="1" as="geometry">
            <mxPoint x="220" y="310" as="sourcePoint" />
            <mxPoint x="230" y="180" as="targetPoint" />
          </mxGeometry>
        </mxCell>
        <mxCell id="RNFraTPyCIDeUbcSLggv-19" value="" style="endArrow=classic;startArrow=classic;html=1;rounded=0;exitX=1;exitY=0.5;exitDx=0;exitDy=0;" edge="1" parent="RNFraTPyCIDeUbcSLggv-27" source="RNFraTPyCIDeUbcSLggv-17">
          <mxGeometry width="50" height="50" relative="1" as="geometry">
            <mxPoint x="130" y="320" as="sourcePoint" />
            <mxPoint x="220" y="300" as="targetPoint" />
          </mxGeometry>
        </mxCell>
        <mxCell id="RNFraTPyCIDeUbcSLggv-24" value="0.5s" style="edgeLabel;html=1;align=center;verticalAlign=middle;resizable=0;points=[];" vertex="1" connectable="0" parent="RNFraTPyCIDeUbcSLggv-19">
          <mxGeometry x="-0.0307" relative="1" as="geometry">
            <mxPoint as="offset" />
          </mxGeometry>
        </mxCell>
        <mxCell id="RNFraTPyCIDeUbcSLggv-20" value="" style="endArrow=classic;startArrow=classic;html=1;rounded=0;exitX=1;exitY=0.5;exitDx=0;exitDy=0;" edge="1" parent="RNFraTPyCIDeUbcSLggv-27">
          <mxGeometry width="50" height="50" relative="1" as="geometry">
            <mxPoint x="120" y="209.76" as="sourcePoint" />
            <mxPoint x="220" y="209.76" as="targetPoint" />
          </mxGeometry>
        </mxCell>
        <mxCell id="RNFraTPyCIDeUbcSLggv-23" value="1s" style="edgeLabel;html=1;align=center;verticalAlign=middle;resizable=0;points=[];" vertex="1" connectable="0" parent="RNFraTPyCIDeUbcSLggv-20">
          <mxGeometry x="-0.0173" relative="1" as="geometry">
            <mxPoint as="offset" />
          </mxGeometry>
        </mxCell>
        <mxCell id="RNFraTPyCIDeUbcSLggv-21" value="" style="endArrow=classic;startArrow=classic;html=1;rounded=0;exitX=1;exitY=0.5;exitDx=0;exitDy=0;" edge="1" parent="RNFraTPyCIDeUbcSLggv-27">
          <mxGeometry width="50" height="50" relative="1" as="geometry">
            <mxPoint x="120" y="119.75999999999999" as="sourcePoint" />
            <mxPoint x="220" y="119.75999999999999" as="targetPoint" />
          </mxGeometry>
        </mxCell>
        <mxCell id="RNFraTPyCIDeUbcSLggv-22" value="1s" style="edgeLabel;html=1;align=center;verticalAlign=middle;resizable=0;points=[];" vertex="1" connectable="0" parent="RNFraTPyCIDeUbcSLggv-21">
          <mxGeometry x="-0.024" relative="1" as="geometry">
            <mxPoint as="offset" />
          </mxGeometry>
        </mxCell>
      </root>
    </mxGraphModel>
  </diagram>
</mxfile>
